<?xml version="1.0" encoding="UTF-8"?><svg id="Layer_1" xmlns="http://www.w3.org/2000/svg" viewBox="0 0 1357 753"><defs><style>.cls-1{fill:#fff9de;}.cls-2,.cls-3{fill:#de8d6d;}.cls-4{fill:#57b3a3;}.cls-5{fill:#4b655d;}.cls-3{stroke:#57b3a3;stroke-miterlimit:10;stroke-width:.75px;}</style></defs><rect class="cls-5" x="42" y="10" width="1305" height="703" rx="145.77" ry="145.77"/><path class="cls-2" d="m1201.23,20c36.27,0,70.36,14.12,96.01,39.77,25.64,25.64,39.77,59.74,39.77,96.01v411.45c0,36.27-14.12,70.36-39.77,96.01-25.64,25.64-59.74,39.77-96.01,39.77H187.77c-36.27,0-70.36-14.12-96.01-39.77-25.64-25.64-39.77-59.74-39.77-96.01V155.77c0-36.27,14.12-70.36,39.77-96.01,25.64-25.64,59.74-39.77,96.01-39.77h1013.45m0-20H187.77C101.74,0,32,69.74,32,155.77v411.45c0,86.03,69.74,155.77,155.77,155.77h1013.45c86.03,0,155.77-69.74,155.77-155.77V155.77c0-86.03-69.74-155.77-155.77-155.77h0Z"/><path class="cls-4" d="m1191.23,30c36.27,0,70.36,14.12,96.01,39.77,25.64,25.64,39.77,59.74,39.77,96.01v411.45c0,36.27-14.12,70.36-39.77,96.01-25.64,25.64-59.74,39.77-96.01,39.77H177.77c-36.27,0-70.36-14.12-96.01-39.77-25.64-25.64-39.77-59.74-39.77-96.01V165.77c0-36.27,14.12-70.36,39.77-96.01,25.64-25.64,59.74-39.77,96.01-39.77h1013.45m0-20H177.77C91.74,10,22,79.74,22,165.77v411.45c0,86.03,69.74,155.77,155.77,155.77h1013.45c86.03,0,155.77-69.74,155.77-155.77V165.77c0-86.03-69.74-155.77-155.77-155.77h0Z"/><path class="cls-2" d="m1181.23,40c36.27,0,70.36,14.12,96.01,39.77,25.64,25.64,39.77,59.74,39.77,96.01v411.45c0,36.27-14.12,70.36-39.77,96.01-25.64,25.64-59.74,39.77-96.01,39.77H167.77c-36.27,0-70.36-14.12-96.01-39.77-25.64-25.64-39.77-59.74-39.77-96.01V175.77c0-36.27,14.12-70.36,39.77-96.01,25.64-25.64,59.74-39.77,96.01-39.77h1013.45m0-20H167.77C81.74,20,12,89.74,12,175.77v411.45c0,86.03,69.74,155.77,155.77,155.77h1013.45c86.03,0,155.77-69.74,155.77-155.77V175.77c0-86.03-69.74-155.77-155.77-155.77h0Z"/><path class="cls-4" d="m1169.23,50c36.27,0,70.36,14.12,96.01,39.77,25.64,25.64,39.77,59.74,39.77,96.01v411.45c0,36.27-14.12,70.36-39.77,96.01-25.64,25.64-59.74,39.77-96.01,39.77H155.77c-36.27,0-70.36-14.12-96.01-39.77-25.64-25.64-39.77-59.74-39.77-96.01V185.77c0-36.27,14.12-70.36,39.77-96.01,25.64-25.64,59.74-39.77,96.01-39.77h1013.45m0-20H155.77C69.74,30,0,99.74,0,185.77v411.45c0,86.03,69.74,155.77,155.77,155.77h1013.45c86.03,0,155.77-69.74,155.77-155.77V185.77c0-86.03-69.74-155.77-155.77-155.77h0Z"/><path class="cls-3" d="m312.22,136.41c-27.3,0-36,14.1-39.3,26.4h-5.4l3.9-32.1h146.7l-5.1,5.7h-100.8Zm-38.4,28.2l4.8,4.5h-5.7l-4.8-4.5h5.7Zm.9-1.5c3.3-11.4,11.1-24.9,36.9-24.9h31.2l-14.7,6.3h-18c-23.4,0-28.2,14.4-30.3,23.7l-5.1-5.1Zm43.8,133.2v4.5l-14.4-10.2v-4.5l14.4,10.2Zm10.2-150l15.9-6.9v127.8c0,22.2-9.3,27.3-23.4,27.3h-2.1l-12.9-9c14.1,0,22.5-3.3,22.5-24.9v-114.3Zm18.3-6.9l15.9,6.9v121.5c0,22.5,9.6,28.8,24.6,28.8v4.5h-67.2v-4.5h.6c15.3,0,26.1-5.4,26.1-28.2v-129Zm66-1.2l3.9,30.9h-4.5c-1.2-8.4-6-24.6-30.9-24.6h-18l-14.7-6.3h64.2Zm-45,147l4.2.3,13.5,9.3c-7.8-.6-14.1-3-17.7-9.6Zm51.6-153.6l3.9,31.5-4.8,5.7-3.9-31.5,4.8-5.7Z"/><path class="cls-3" d="m424.72,137.31c20.7,0,39.3,4.2,52.2,27.9l34.2,62.4h-15.6l-31.8-57c-12.6-22.5-26.7-30.3-39-30.3v-3Zm54.3,27c-14.4-25.5-33.9-28.8-54-28.8l6.3-4.8h66.6l5.4,4.5c-13.5,0-19.5,9-11.4,24l34.8,63.9,30.9-56.4c2.7-4.8,3.9-9.3,3.9-12.9,0-7.5-5.1-11.7-13.8-12v-4.5h53.1v5.1c-12,0-26.7,5.4-39.3,28.2l-31.5,57.6v39.6c0,22.5,9.6,28.8,24.6,28.8v4.5h-67.2v-4.8h.6c15.3,0,26.1-5.4,26.1-28.2v-39.9l-35.1-63.9Zm6.6,132v4.5l-14.4-10.2v-4.5l14.4,10.2Zm26.1-29.1c0,22.2-9.3,27.3-23.4,27.3h-2.1l-12.9-9c14.1,0,22.5-3.3,22.5-24.9v-31.2h15.9v37.8Zm-21.6-120.3c0-6.3,5.1-9.9,13.2-9.9v3.3c-7.5,0-12.3,2.1-13.2,7.8v-1.2Zm69.6,6.9c0,3.3-1.2,7.5-3.6,12l-29.4,53.7-2.7-5.1,27-49.5c6-10.8,4.8-18.3-1.2-21.3,6,.9,9.9,4.5,9.9,10.2Zm-24.6,131.4l4.2.3,13.5,9.3c-7.8-.6-14.1-3-17.7-9.6Zm.6-149.1v-4.5l10.2,5.7v4.5l-10.2-5.7Zm10.5-.6l-8.7-4.8h52.8l9.3,4.8h-53.4Z"/><path class="cls-3" d="m647.31,267.21c0,22.2-9.3,27.3-23.4,27.3h-2.1l-12.9-9c14.1,0,22.5-3.3,22.5-24.9v-96.6c0-22.5-9.6-28.8-24.6-28.8v-4.5h67.2v4.5h-.6c-15.3,0-26.1,5.4-26.1,28.2v103.8Zm-40.5,18.9l14.4,10.2v4.5l-14.4-10.2v-4.5Zm1.8-149.1c7.8.6,14.1,3,17.7,9.6l-4.2-.3-13.5-9.3Zm124.2,156.6l3.9,7.5h-113.7v-4.5h.6c15.3,0,26.1-5.4,26.1-28.2v-103.8c0-22.2,9.3-27.3,23.4-27.3h2.1l12.9,9c-14.1,0-22.5,3.3-22.5,24.9v122.4h67.2Zm-.3-1.8h-64.5v-7.8h36c22.5,0,31.2-16.5,33.9-25.2h4.2l-9.6,33Zm-42.3-146.1l-14.4-10.2v-4.5l14.4,10.2v4.5Zm44.1,146.7l9.3-32.1,3.9,7.5-9.3,32.1-3.9-7.5Z"/><path class="cls-3" d="m742.71,141.21l14.4-10.2v4.5l-14.4,10.2v-4.5Zm93.9,153.6c24.9,0,33.3-20.7,36.3-29.1h5.4l-10.2,35.4h-125.4v-4.5c15,0,24.3-6.3,24.3-28.8v-96.6c0-21.6-8.1-24.9-22.2-24.9l12.9-9h2.1c14.1,0,23.1,5.1,23.1,27.3v130.2h53.7Zm-78.6-9.3l4.2-.3c-3.6,6.6-9.9,9-17.7,9.6l13.5-9.3Zm43.2-150v71.1l-15.9,6.6v-49.8c0-22.8-10.5-28.2-25.8-28.2h-.6v-4.5h109.5l3.9,30.9h-5.7c-1.5-8.4-6.6-26.1-30.9-26.1h-34.5Zm0,147l-15.9,9.6v-75.3l15.9,6.6v59.1Zm-13.2-68.4l13.5-5.4h21.3c13.8,0,21-4.8,22.2-14.1l2.1-2.4v5.1c0,11.1-7.2,16.8-22.5,16.8h-36.6Zm0,1.8h36.6c15.3,0,22.5,6,22.5,16.8v6.3h-1.8c0-11.1-7.2-17.7-22.5-17.7h-21.3l-13.5-5.4Zm.3,77.1l14.7-9h34.5c19.2,0,26.1-15.6,28.8-23.1l4.8,4.5c-3.3,9-11.4,27.6-34.5,27.6h-48.3Zm46.5-155.7c18,0,27.3,9,30,24.9l-4.5,4.5c-1.8-7.8-7.2-22.5-28.8-22.5h-28.5v-6.9h31.8Zm14.1,53.7h3v44.4l-3,3v-5.7c0-9.6-5.1-15.9-15.6-17.7,10.5-1.8,15.6-7.8,15.6-17.7v-6.3Zm17.4-22.8h-5.1l4.8-4.8h5.1l-4.8,4.8Zm5.7,95.7l-4.8-4.5h5.7l4.8,4.5h-5.7Z"/><path class="cls-3" d="m874.71,145.71v-4.5l14.4-10.2v4.5l-14.4,10.2Zm40.5,74.7h31.8l-5.1,5.1h-26.7v42.9c0,22.8,10.8,28.2,26.1,28.2h.6v4.5h-67.2v-4.5c15,0,24.6-6.3,24.6-28.8v-96.6c0-21.6-8.4-24.9-22.5-24.9l12.9-9h2.1c14.1,0,23.4,5.1,23.4,27.3v55.8Zm-25.2,65.1l4.2-.3c-3.6,6.6-9.9,9-17.7,9.6l13.5-9.3Zm57.3-154.8c28.2,0,46.8,14.4,46.8,42.9,0,26.4-21.6,45-48.3,45h-25.8l13.8-5.4h8.7c25.5,0,35.4-15,35.4-37.5s-15.6-33.9-35.7-33.9h-8.7v69.3l-15.9,6.6v-54.3c0-22.8-10.8-28.2-26.1-28.2h-.6v-4.5h56.4Zm-13.8,96.6v33.3c0,21.6,8.4,24.9,22.5,24.9l-12.9,9h-2.1c-14.1,0-23.4-5.1-23.4-27.3v-39.9h15.9Zm24.6,58.8v4.5l-14.4,10.2v-4.5l14.4-10.2Zm50.4,18.3c-19.8,0-34.5-11.7-44.1-33.6l-19.8-45.3,5.7-5.7,27.3,44.4c13.2,21.6,24.9,34.5,42.3,34.5,4.8,0,9.3-.9,12.9-2.7-3.3,2.7-9.3,8.4-24.3,8.4Zm-55.8-84.6l16.5,4.5,25.5,33.9c9.3,12,19.5,25.8,34.5,25.8,9.6,0,15.3-5.7,18.9-12.3-3.6,15-12.6,25.2-27.9,25.2-16.5,0-27.6-12.6-40.8-33.6l-26.7-43.5Zm4.8-.3c21.6-4.2,39-21.9,39-45.9s-12-36.6-30-42.3c28.5,3.9,45.9,20.1,45.9,45.9,0,22.5-18,39-41.1,45.6l-13.8-3.3Zm73.2,44.1c3.3,3.6,5.4,8.4,5.4,15,3.9-6.3,10.2-10.8,12.9-11.7-3.3,7.5-8.7,15.3-19.8,15.3-2.1,0-3.6-.3-5.4-.6,4.5-4.8,6.6-11.1,6.9-18Z"/><path class="cls-3" d="m199.87,318.37l-14.1,8.1v-4.2l14.1-8.1v4.2Zm10.5,37.2c0-21.9-8.4-25.5-22.8-28.2l12.3-6.9c17.1,2.4,26.4,10.2,26.4,31.2v107.4c0,22.8,10.8,28.2,26.1,28.2h.6v4.5h-67.2v-4.5c15,0,24.6-6.3,24.6-28.8v-102.9Zm-9.3,120.6l4.2-.3c-3.6,6.6-9.9,9-17.7,9.6l13.5-9.3Zm27.6-124.2c0-22.5-9.9-30-27-33.3v-4.5l67.5,12v4.2c-15-2.4-24.6,2.1-24.6,24.6v42.3l-15.9,6.6v-51.9Zm15.9,62.1v37.2c0,21.6,8.4,24.9,22.5,24.9l-12.9,9h-2.1c-14.1,0-23.4-5.1-23.4-27.3v-50.4l15.9,6.6Zm109.5,44.4c0,22.5,9.6,28.8,24.6,28.8v4.5h-67.2v-4.5h.6c15.3,0,26.1-5.4,26.1-28.2v-47.1h-93.3l-13.8-5.4h107.1v-51.3c0-22.2,9.3-27.3,23.4-27.3h2.1l12.9,9c-14.1,0-22.5,3.3-22.5,24.9v96.6Zm-109.2-59.1h74.7l13.8,5.4h-102.3l13.8-5.4Zm9.3-60.6c-1.2-.3-2.7-.6-4.5-.6,3.6-5.7,9.9-7.2,17.4-6.3l-12.9,6.9Zm15,138v4.5l-14.4,10.2v-4.5l14.4-10.2Zm66.6-72.9l-15.9-6.6v-42.6c0-22.5-9.6-28.8-24.6-28.8v-4.5h67.2v4.5h-.6c-15.3,0-26.1,5.4-26.1,28.2v49.8Zm-26.1,83.1v4.5l-14.4-10.2v-4.5l14.4,10.2Zm-12.6-159.3c7.8.6,14.1,3,17.7,9.6l-4.2-.3-13.5-9.3Zm38.7,130.2c0,22.2-9.3,27.3-23.4,27.3h-2.1l-12.9-9c14.1,0,22.5-3.3,22.5-24.9v-37.5h15.9v44.1Zm41.1,27.6c-7.8-.6-14.1-3-17.7-9.6l4.2.3,13.5,9.3Zm-12.6-159.3v-4.5l14.4,10.2v4.5l-14.4-10.2Z"/><path class="cls-3" d="m491.77,495.38c36.3-9,61.2-43.2,61.2-84,0-47.4-33.3-86.1-79.8-86.1s-79.8,38.7-79.8,86.1c0,40.8,24.6,75.3,60.9,84-46.5-7.8-77.1-44.7-77.1-88.8,0-49.8,39-90.3,95.7-90.3s96,40.5,96,90.3c0,44.1-30.6,81-77.1,88.8Zm58.2-84c0,47.1-34.2,84-76.8,84s-76.8-38.7-76.8-84c0-35.4,18.6-66.3,48.6-78.3-20.7,11.1-31.2,34.5-30.9,63.9,0,41.1,22.8,96.6,70.2,90,31.2-4.2,47.4-32.7,47.7-68.4,0-36.6-15-82.2-53.7-90.9,42.9,3,71.7,39.6,71.7,83.7Z"/><path class="cls-3" d="m599.46,452.48c0,20.4,6.9,28.8,25.8,28.8v3.6h-56.1v-4.2c14.7,0,24.3-5.7,24.3-28.2v-100.5c0-15-4.5-20.4-12-22.8,11.1,1.5,18,8.1,18,27v96.3Zm26.4,34.2l5.4,5.1h-55.8l-5.7-5.1h56.1Zm-18.6-29.1c0,9,1.5,15.3,4.2,19.8-6.6-3.3-10.2-10.5-10.2-24.9v-96.6c0-21.9-9.6-28.8-23.1-28.8h-6.3v-5.7h51l64.8,133.5,63.6-133.5h48v4.5c-15,.3-24.6,5.7-24.6,28.2v104.4c0,22.5,9.6,28.8,24.6,28.8v4.5h-67.2v-4.5h.6c15.3,0,26.1-5.4,26.1-28.2v-134.4h-2.4l-78.6,165.3-70.5-146.4v114Zm1.8-105.6l67.2,139.8h-7.2l-60-125.1v-14.7Zm18,133.5v-3.9l6.3,5.7v3.9l-6.3-5.7Zm122.4-164.1l-61.8,129.3-3.6-7.5,54-114.3,11.4-7.5Zm-33.6,155.4l14.4,10.2v4.5l-14.4-10.2v-4.5Zm40.5-18.9c0,22.2-9.3,27.3-23.4,27.3h-2.1l-12.9-9c14.1,0,22.5-3.3,22.5-24.9v-89.1l15.9-33.6v129.3Zm42-130.2l-14.4,9.9c-1.2,0-2.7,0-4.8.3,3.9-7.5,10.2-9.9,19.2-10.2Zm-.9,157.8c-7.8-.6-14.1-3-17.7-9.6l4.2.3,13.5,9.3Z"/><path class="cls-3" d="m804.96,487.58v-5.4l5.7,3.9v5.7l-5.7-4.2Zm1.5-6.3c12.9-.3,25.2-6.3,33-28.2l36-102.3c5.4-15-2.4-21-14.1-23.1v-4.5l39.3,6.6,31.8,92.1-18-6-27.6-79.5-28.5,81h54.6l17.1,5.7h-73.5l-12,33.9c-8.1,22.2-19.5,27.6-33,27.9l-5.1-3.6Zm6,5.4c13.5-.3,25.5-6.3,33.9-29.1l10.8-31.8,4.2,5.4-10.2,30.3c-5.4,15.6-.6,24.3,14.4,24.6v5.7h-53.1v-5.1Zm51-2.7c-6.9-.6-11.1-3.6-12.3-8.4.3,0,8.4,5.7,12.3,8.4Zm53.1-53.4h-53.4l-4.5-5.7h71.4l-13.5,5.7Zm-55.5-15l25.8-73.8,3,9-22.8,64.8h-6Zm79.8-94.2l-39.3,6.6-40.2-6.6h79.5Zm0,6.3c-9.6.9-19.5,7.5-14.1,23.1l37.2,106.8c3.3,9.3,6.9,15.9,10.8,20.4-7.8-3-21.9-5.4-28.8-25.2l-42.9-123.3,37.8-6.3v4.5Zm2.7,125.4c8.1,22.5,27,27.9,41.7,28.2v3.6h-68.7v-4.2c13.2-.3,18.6-5.7,12.3-23.7l-9-26.1,13.5-5.7,10.2,27.9Zm-18,38.7l-7.5-5.1h68.1l7.2,5.1h-67.8Zm69.9-4.2v3.6l-8.4-6v-3.9l8.4,6.3Z"/><path class="cls-3" d="m997.56,328.57v-3.9l4.2-3v3.9l-4.2,3Zm30.9,123.9c0,20.4,5.4,28.8,24.9,28.8v3.6h-55.2v-4.2c14.7,0,24.3-5.7,24.3-28.2v-97.8c0-21.9-9.6-24.9-24-24.9l3.9-2.7h2.1c14.7,0,24,6,24,28.2v97.2Zm25.5,34.2l5.7,5.1h-54.6l-5.7-5.1h54.6Zm-17.7-29.1c0,9,1.5,15.3,4.2,19.8-6.6-3.3-10.2-10.5-10.2-24.9v-98.4c0-23.4-10.8-28.8-26.1-28.8h-.6v-3.9h42l104.7,123.9v27.3l-114-138.3v123.3Zm121.8,34.2h-15.3l-104.7-123.6v-27.6l114,138.3v-123.3c0-9-1.5-15.3-4.2-19.8,6.6,3.3,10.2,10.5,10.2,24.9v131.1Zm-102.9-6.3v-3.9l6,5.4v3.9l-6-5.4Zm78.3-157.8v3.9l-6-5.4v-3.9l6,5.4Zm1.5-1.2l-6-5.1h54.6l5.7,5.1h-54.3Zm30.9,158.4l-6,6.3v-130.5c0-20.4-5.1-28.8-24.6-28.8v-3.6h55.2v4.2c-14.7,0-24.6,5.7-24.6,28.2v124.2Z"/><path class="cls-1" d="m325.09,582.91c-1.08,3.42-2.55,6.36-4.41,8.82-1.86,2.46-4.02,4.5-6.48,6.12-2.46,1.62-5.07,2.91-7.83,3.87-2.76.96-5.61,1.64-8.55,2.03-2.94.39-5.79.58-8.55.58h-32.85v-.9c1.5-.18,2.95-.57,4.37-1.17,1.41-.6,2.47-1.32,3.19-2.16.3-.3.52-.81.67-1.53.15-.72.28-1.53.41-2.43.12-.9.21-1.86.27-2.88.06-1.02.09-2.01.09-2.97,0-.84.01-1.98.04-3.42.03-1.44.06-3.01.09-4.72.03-1.71.04-3.47.04-5.27v-26.01c0-1.08-.04-2.08-.14-3.01-.09-.93-.23-1.77-.4-2.52-.18-.75-.45-1.33-.81-1.75-.9-1.08-1.98-1.83-3.24-2.25-1.26-.42-2.67-.72-4.23-.9v-.9c2.52,0,6.15-.01,10.89-.04,4.74-.03,10.47-.04,17.19-.04h5.76c1.98,0,3.96.09,5.94.27s3.96.48,5.94.9c1.98.42,3.93,1.05,5.85,1.89,2.52,1.08,4.89,2.46,7.11,4.14,2.22,1.68,4.15,3.68,5.81,5.99,1.65,2.31,2.97,4.98,3.96,8.01.99,3.03,1.48,6.5,1.48,10.4,0,4.5-.54,8.46-1.62,11.88Zm-11.07-21.87c-1.08-3.3-2.58-6.28-4.5-8.96-1.92-2.67-4.2-4.93-6.84-6.79-2.64-1.86-5.52-3.06-8.64-3.6-1.2-.24-2.52-.43-3.96-.58-1.44-.15-3.21-.23-5.31-.23-.72,0-1.5.02-2.34.04-.84.03-1.67.09-2.48.18-.81.09-1.56.17-2.25.22-.69.06-1.25.15-1.67.27-.3,2.94-.48,6.99-.54,12.15-.06,5.16-.09,11.31-.09,18.45v10.53c0,3.12.03,5.67.09,7.65,0,.84.04,1.75.13,2.75.09.99.19,1.95.32,2.88.12.93.31,1.77.58,2.52.27.75.58,1.3.94,1.67,1.2,1.2,2.71,1.97,4.54,2.29,1.83.33,3.56.5,5.18.5,1.5,0,3.04-.08,4.63-.23,1.59-.15,3.07-.43,4.46-.85,6.48-1.86,11.32-5.47,14.54-10.85,3.21-5.37,4.81-11.98,4.81-19.84,0-3.48-.54-6.87-1.62-10.17Z"/><path class="cls-1" d="m366.76,595.1c-.84,1.65-1.98,3.17-3.42,4.54-1.44,1.38-3.17,2.52-5.18,3.42-2.01.9-4.25,1.35-6.71,1.35-3.06,0-5.85-.57-8.37-1.71-2.52-1.14-4.67-2.75-6.44-4.81-1.77-2.07-3.14-4.5-4.1-7.29-.96-2.79-1.44-5.75-1.44-8.87,0-2.52.45-5.02,1.35-7.52.9-2.49,2.17-4.72,3.82-6.7,1.65-1.98,3.66-3.58,6.03-4.82,2.37-1.23,5-1.84,7.88-1.84,2.34,0,4.54.3,6.61.9,2.07.6,3.87,1.52,5.4,2.75,1.53,1.23,2.77,2.78,3.73,4.63.96,1.86,1.53,4.05,1.71,6.57h-28.89c0,.48-.03,1.04-.09,1.67-.06.63-.09,1.28-.09,1.94,0,2.52.36,4.94,1.08,7.24.72,2.31,1.77,4.35,3.15,6.12,1.38,1.77,3.12,3.17,5.22,4.19,2.1,1.02,4.53,1.53,7.29,1.53,3,0,5.62-.76,7.88-2.29,2.25-1.53,3.73-3.4,4.46-5.62l.72.18c-.24,1.32-.78,2.8-1.62,4.46Zm-10.31-30.33c-1.53-1.59-3.59-2.39-6.17-2.39-1.68,0-3.19.5-4.54,1.49s-2.52,2.15-3.51,3.46c-.99,1.32-1.76,2.66-2.3,4-.54,1.35-.87,2.39-.99,3.11h3.69c1.08,0,2.14-.01,3.19-.04,1.05-.03,2.14-.06,3.29-.09,1.14-.03,2.4-.04,3.78-.04.9,0,1.74-.03,2.52-.09.78-.06,1.47-.21,2.07-.45.42-.48.73-.93.94-1.35.21-.42.31-1.05.31-1.89,0-2.22-.76-4.12-2.29-5.71Z"/><path class="cls-1" d="m400.37,597.26c-.93,1.71-2.18,3.11-3.73,4.19-1.56,1.08-3.35,1.86-5.35,2.34-2.01.48-4.13.72-6.35.72-2.64,0-5.13-.24-7.47-.72-2.34-.48-4.5-1.17-6.48-2.07v-11.88h.72c.48,1.44,1.08,2.96,1.79,4.54.72,1.59,1.58,3.06,2.6,4.41,1.02,1.35,2.24,2.46,3.68,3.33,1.43.87,3.14,1.3,5.11,1.3,2.87,0,5.15-.82,6.86-2.47,1.7-1.65,2.56-4.18,2.56-7.61,0-1.86-.58-3.4-1.75-4.63-1.17-1.23-2.76-2.05-4.8-2.47-1.61-.3-3.17-.63-4.66-.99-1.49-.36-2.84-.75-4.03-1.17-2.27-.78-4.11-2.13-5.51-4.05-1.4-1.92-2.11-4.23-2.11-6.93,0-1.86.39-3.54,1.17-5.04.78-1.5,1.83-2.79,3.15-3.87,1.32-1.08,2.85-1.9,4.59-2.48,1.74-.57,3.6-.85,5.58-.85,2.52,0,4.74.22,6.66.67,1.92.45,3.75,1.01,5.49,1.67l1.08,11.16-.72.18c-.84-1.8-1.68-3.46-2.52-5-.84-1.53-1.77-2.85-2.79-3.96-1.02-1.11-2.18-1.96-3.46-2.56-1.29-.6-2.78-.9-4.46-.9-1.02,0-2.02.18-3.02.54-.99.36-1.86.89-2.61,1.58-.75.69-1.37,1.56-1.84,2.61-.48,1.05-.72,2.27-.72,3.65,0,2.22.63,3.81,1.89,4.77,1.26.96,2.85,1.68,4.77,2.16,1.32.3,2.76.62,4.32.95,1.56.33,2.91.65,4.05.95,2.7.66,4.99,2.04,6.88,4.14,1.89,2.1,2.83,4.68,2.83,7.74,0,2.34-.47,4.36-1.4,6.07Z"/><path class="cls-1" d="m404.55,604.33v-.9c.72-.06,1.44-.13,2.16-.22.72-.09,1.36-.24,1.94-.45.57-.21,1.05-.5,1.44-.85.39-.36.59-.81.59-1.35v-30.87c0-.48-.05-.9-.14-1.26-.09-.36-.35-.69-.77-.99-.54-.36-1.19-.72-1.94-1.08-.75-.36-1.55-.69-2.38-.99v-.54l12.15-3.96h.54v40.23c.12.6.37,1.04.77,1.31.39.27.85.46,1.4.58s1.12.2,1.75.22c.63.03,1.24.11,1.85.22v.9h-19.35Zm12.92-54.22c-.93.93-2.09,1.39-3.47,1.39s-2.46-.48-3.42-1.44c-.96-.96-1.44-2.1-1.44-3.42s.46-2.52,1.4-3.42c.93-.9,2.08-1.35,3.46-1.35s2.53.45,3.47,1.35c.93.9,1.4,2.04,1.4,3.42s-.47,2.54-1.4,3.47Z"/><path class="cls-1" d="m473,568.19c-.63.69-1.4,1.04-2.29,1.04-.36,0-.9-.15-1.62-.45-.72-.3-1.52-.66-2.39-1.08-.87-.42-1.75-.88-2.65-1.4-.9-.51-1.71-.97-2.43-1.39l-.36.36c.9,1.38,1.67,2.67,2.29,3.87.63,1.2.95,2.76.95,4.68,0,4.74-1.65,8.29-4.95,10.67-3.3,2.37-7.86,3.55-13.68,3.55-.84,0-1.7-.06-2.56-.18-.87-.12-1.91-.18-3.1-.18-1.92.12-3.45.57-4.59,1.35-1.14.78-1.71,1.77-1.71,2.97,0,.96.3,1.75.9,2.38.6.63,1.35,1.12,2.25,1.49s1.89.6,2.97.72c1.08.12,2.13.18,3.15.18h14.4c2.1,0,3.99.33,5.67.99,1.68.66,3.12,1.56,4.32,2.7,1.2,1.14,2.12,2.45,2.75,3.92s.95,3.11.95,4.91c0,2.34-.58,4.57-1.76,6.71-1.17,2.13-2.81,4-4.9,5.62-2.1,1.62-4.58,2.89-7.42,3.83-2.85.93-5.99,1.39-9.41,1.39-6.54,0-11.63-.98-15.25-2.92-3.63-1.95-5.45-4.63-5.45-8.06,0-1.26.34-2.4,1.04-3.42.69-1.02,1.56-2,2.61-2.92,1.05-.93,2.22-1.8,3.51-2.61,1.29-.81,2.56-1.61,3.83-2.39v-.18c-3.06-.36-5.42-1.23-7.07-2.61-1.65-1.38-2.47-3.21-2.47-5.49,0-1.14.27-2.22.81-3.24.54-1.02,1.29-1.95,2.25-2.79.96-.84,2.08-1.54,3.38-2.12,1.29-.57,2.68-.95,4.19-1.12v-.27c-2.64-1.02-4.7-2.52-6.17-4.5-1.47-1.98-2.2-4.5-2.2-7.56,0-1.92.43-3.72,1.3-5.4.87-1.68,2.08-3.13,3.65-4.37,1.56-1.23,3.4-2.21,5.54-2.92,2.13-.72,4.46-1.08,6.98-1.08,2.28,0,4.3.21,6.07.63,1.77.42,3.61,1.14,5.54,2.16.72.24,1.33.39,1.85.45.51.06,1.12.09,1.84.09s1.36-.1,1.94-.32c.57-.21,1.09-.45,1.58-.72.48-.27.99-.51,1.53-.72.54-.21,1.17-.32,1.89-.32,1.02,0,1.86.36,2.52,1.08.66.72.99,1.59.99,2.61,0,.9-.31,1.7-.94,2.38Zm-8.87,40.27c-.72-1.26-1.59-2.13-2.61-2.61-1.32-.66-2.97-1.12-4.95-1.4-1.98-.27-4.71-.4-8.19-.4-1.26,0-2.55.06-3.87.18-1.32.12-2.4.24-3.24.36-2.82.72-4.77,1.86-5.85,3.42-1.08,1.56-1.62,3.27-1.62,5.13s.52,3.6,1.58,5.04c1.05,1.44,2.35,2.65,3.92,3.64,1.56.99,3.22,1.72,5,2.21,1.77.48,3.4.72,4.9.72,1.8,0,3.34-.09,4.64-.27,1.29-.18,2.44-.45,3.46-.81,2.1-.84,3.94-2.19,5.54-4.05,1.59-1.86,2.38-4.08,2.38-6.66,0-1.74-.36-3.24-1.08-4.5Zm-7.47-39.06c-.42-1.38-1.04-2.59-1.85-3.65-.81-1.05-1.83-1.89-3.06-2.52-1.23-.63-2.65-.95-4.27-.95-1.5,0-2.85.35-4.05,1.04-1.2.69-2.21,1.62-3.02,2.79s-1.43,2.51-1.85,4c-.42,1.5-.63,3.03-.63,4.59,0,3.6.91,6.5,2.75,8.69,1.83,2.19,4.06,3.29,6.71,3.29,1.62,0,3.04-.36,4.27-1.08,1.23-.72,2.26-1.68,3.1-2.88.84-1.2,1.47-2.57,1.89-4.1.42-1.53.63-3.13.63-4.81,0-1.56-.21-3.03-.63-4.41Z"/><path class="cls-1" d="m500.76,604.33v-.99c1.62-.12,2.91-.31,3.87-.58.96-.27,1.44-.88,1.44-1.84v-22.68c0-3.48-.66-6.29-1.98-8.42-1.32-2.13-3.54-3.2-6.66-3.2-1.98,0-3.63.42-4.95,1.26-1.32.84-2.79,2.07-4.41,3.69v29.52c.12.6.33,1.04.63,1.31.3.27.66.46,1.08.58.42.12.9.2,1.44.22.54.03,1.11.11,1.71.22v.9h-17.37v-.9c1.38-.12,2.56-.39,3.56-.81.99-.42,1.48-1.11,1.48-2.07v-30.96c0-.48-.04-.84-.14-1.08-.09-.24-.35-.51-.76-.81-.54-.3-1.17-.64-1.89-1.04-.72-.39-1.44-.73-2.16-1.04v-.54l11.79-4.23h.54v9.72l.18.09c.66-1.02,1.48-2.12,2.47-3.29.99-1.17,2.11-2.23,3.36-3.19,1.26-.96,2.63-1.75,4.13-2.39,1.49-.63,3.05-.94,4.66-.94,3.47,0,6.13,1.29,7.98,3.87,1.85,2.58,2.78,5.91,2.78,9.99v26.46c0,.42.19.78.58,1.08.39.3.85.53,1.4.68.54.15,1.12.27,1.75.36.63.09,1.22.17,1.76.23v.81h-18.27Z"/><path class="cls-1" d="m609.12,563.78c-2.52,1.59-4.91,3.54-7.16,5.85-2.25,2.31-4.46,4.86-6.62,7.65-2.16,2.79-4.44,5.57-6.84,8.33.84,1.08,1.8,2.33,2.88,3.73,1.08,1.41,2.43,2.96,4.05,4.64,1.56,1.62,3.13,2.94,4.72,3.96,1.59,1.02,3.55,1.53,5.9,1.53,1.2,0,2.32-.24,3.38-.72,1.05-.48,2.02-1.08,2.92-1.8.9-.72,1.71-1.5,2.43-2.34.72-.84,1.29-1.62,1.71-2.34l.81.36c-.42,1.2-1.19,2.57-2.3,4.09-1.11,1.53-2.45,2.96-4,4.28-1.56,1.32-3.32,2.4-5.26,3.24-1.95.84-3.98,1.26-6.08,1.26-1.98,0-3.81-.35-5.49-1.04-1.68-.69-3.25-1.63-4.72-2.83-1.47-1.2-2.83-2.56-4.09-4.09-1.26-1.53-2.4-3.11-3.42-4.72-.78,1.14-1.86,2.43-3.24,3.87-1.38,1.44-2.99,2.79-4.82,4.05-1.83,1.26-3.86,2.29-6.07,3.1-2.22.81-4.56,1.21-7.02,1.21-2.76,0-5.25-.4-7.47-1.21-2.22-.81-4.08-1.95-5.58-3.42-1.5-1.47-2.66-3.2-3.46-5.17-.81-1.98-1.21-4.05-1.21-6.21,0-2.52.52-4.84,1.57-6.98,1.05-2.13,2.43-4.05,4.14-5.76s3.61-3.24,5.71-4.59c2.1-1.35,4.17-2.53,6.21-3.55-1.32-1.38-2.55-2.62-3.69-3.74-1.14-1.11-2.13-2.26-2.97-3.46-.84-1.2-1.52-2.52-2.03-3.96-.51-1.44-.76-3.15-.76-5.13s.46-3.79,1.4-5.45c.93-1.65,2.13-3.06,3.6-4.23,1.47-1.17,3.12-2.08,4.95-2.75,1.83-.66,3.67-.99,5.54-.99,1.62,0,3.21.24,4.77.72,1.56.48,2.96,1.19,4.19,2.12,1.23.93,2.23,2.12,3.01,3.55.78,1.44,1.17,3.12,1.17,5.04s-.42,3.66-1.26,5.22c-.84,1.56-1.82,2.93-2.92,4.1-1.11,1.17-2.24,2.15-3.38,2.92-1.14.78-2.01,1.35-2.61,1.71,1.86,1.44,3.57,2.96,5.13,4.54,1.56,1.59,3.09,3.23,4.59,4.91,1.68,1.92,3.22,3.87,4.63,5.85,1.41,1.98,2.62,3.81,3.65,5.49,1.38-1.74,2.68-3.48,3.92-5.22,1.23-1.74,2.31-3.39,3.24-4.95.93-1.56,1.67-2.98,2.21-4.28.54-1.29.81-2.32.81-3.1,0-1.32-.35-2.34-1.04-3.06-.69-.72-1.61-1.26-2.75-1.62-1.14-.36-2.4-.58-3.78-.67-1.38-.09-2.76-.16-4.14-.22v-1.08l31.41-.72v1.08c-3.12.42-5.94,1.43-8.46,3.01Zm-30.06,24.39c-.72-1.05-1.46-2.07-2.21-3.06-.75-.99-1.56-2.01-2.43-3.06-.87-1.05-1.84-2.23-2.92-3.55-.6-.72-1.34-1.53-2.21-2.43-.87-.9-1.77-1.79-2.7-2.66-.93-.87-1.83-1.69-2.7-2.47-.87-.78-1.61-1.44-2.21-1.98-1.02.84-2.07,1.83-3.15,2.97-1.08,1.14-2.07,2.4-2.97,3.78-.9,1.38-1.64,2.9-2.21,4.54-.57,1.65-.86,3.38-.86,5.17s.3,3.51.9,5.13c.6,1.62,1.47,3.05,2.61,4.27,1.14,1.23,2.49,2.19,4.05,2.88,1.56.69,3.27,1.04,5.13,1.04s3.51-.15,4.95-.45c1.44-.3,2.77-.73,4-1.3,1.23-.57,2.41-1.29,3.55-2.16,1.14-.87,2.34-1.87,3.6-3.01-.78-1.38-1.53-2.59-2.25-3.65Zm-6.35-40.59c-.39-1.35-.94-2.55-1.67-3.6-.72-1.05-1.59-1.9-2.61-2.57-1.02-.66-2.13-.99-3.33-.99-1.08,0-2.01.24-2.79.72-.78.48-1.41,1.08-1.89,1.8-.48.72-.84,1.5-1.08,2.34-.24.84-.36,1.62-.36,2.34,0,1.92.18,3.42.54,4.5.36,1.08.99,2.25,1.89,3.51,1.02,1.44,2.12,2.69,3.29,3.74,1.17,1.05,2.57,2.29,4.18,3.74,1.56-1.62,2.68-3.3,3.38-5.04.69-1.74,1.04-3.87,1.04-6.39,0-1.38-.2-2.74-.58-4.09Z"/><path class="cls-1" d="m706.95,582.91c-1.08,3.42-2.55,6.36-4.41,8.82-1.86,2.46-4.02,4.5-6.48,6.12-2.46,1.62-5.07,2.91-7.83,3.87-2.76.96-5.61,1.64-8.55,2.03-2.94.39-5.79.58-8.55.58h-32.85v-.9c1.5-.18,2.95-.57,4.36-1.17,1.41-.6,2.48-1.32,3.2-2.16.3-.3.52-.81.67-1.53.15-.72.28-1.53.41-2.43.12-.9.21-1.86.27-2.88.06-1.02.09-2.01.09-2.97,0-.84.01-1.98.04-3.42.03-1.44.06-3.01.09-4.72.03-1.71.04-3.47.04-5.27v-26.01c0-1.08-.04-2.08-.13-3.01-.09-.93-.23-1.77-.41-2.52-.18-.75-.45-1.33-.81-1.75-.9-1.08-1.98-1.83-3.24-2.25-1.26-.42-2.67-.72-4.23-.9v-.9c2.52,0,6.15-.01,10.89-.04,4.74-.03,10.47-.04,17.19-.04h5.76c1.98,0,3.96.09,5.94.27,1.98.18,3.96.48,5.94.9,1.98.42,3.93,1.05,5.85,1.89,2.52,1.08,4.89,2.46,7.11,4.14,2.22,1.68,4.15,3.68,5.8,5.99,1.65,2.31,2.97,4.98,3.96,8.01.99,3.03,1.49,6.5,1.49,10.4,0,4.5-.54,8.46-1.62,11.88Zm-11.07-21.87c-1.08-3.3-2.58-6.28-4.5-8.96-1.92-2.67-4.2-4.93-6.84-6.79-2.64-1.86-5.52-3.06-8.64-3.6-1.2-.24-2.52-.43-3.96-.58-1.44-.15-3.21-.23-5.31-.23-.72,0-1.5.02-2.34.04-.84.03-1.67.09-2.48.18-.81.09-1.56.17-2.25.22-.69.06-1.25.15-1.67.27-.3,2.94-.48,6.99-.54,12.15-.06,5.16-.09,11.31-.09,18.45v10.53c0,3.12.03,5.67.09,7.65,0,.84.05,1.75.14,2.75s.19,1.95.31,2.88c.12.93.32,1.77.58,2.52.27.75.58,1.3.95,1.67,1.2,1.2,2.71,1.97,4.54,2.29,1.83.33,3.55.5,5.17.5,1.5,0,3.04-.08,4.64-.23,1.59-.15,3.07-.43,4.45-.85,6.48-1.86,11.33-5.47,14.54-10.85,3.21-5.37,4.82-11.98,4.82-19.84,0-3.48-.54-6.87-1.62-10.17Z"/><path class="cls-1" d="m748.62,595.1c-.84,1.65-1.98,3.17-3.42,4.54-1.44,1.38-3.17,2.52-5.17,3.42-2.01.9-4.25,1.35-6.71,1.35-3.06,0-5.85-.57-8.37-1.71-2.52-1.14-4.67-2.75-6.43-4.81-1.77-2.07-3.14-4.5-4.09-7.29-.96-2.79-1.44-5.75-1.44-8.87,0-2.52.45-5.02,1.35-7.52.9-2.49,2.17-4.72,3.83-6.7,1.65-1.98,3.66-3.58,6.03-4.82,2.37-1.23,5-1.84,7.88-1.84,2.34,0,4.54.3,6.62.9,2.07.6,3.87,1.52,5.4,2.75,1.53,1.23,2.77,2.78,3.74,4.63.96,1.86,1.53,4.05,1.71,6.57h-28.89c0,.48-.03,1.04-.09,1.67s-.09,1.28-.09,1.94c0,2.52.36,4.94,1.08,7.24.72,2.31,1.77,4.35,3.15,6.12,1.38,1.77,3.12,3.17,5.22,4.19,2.1,1.02,4.53,1.53,7.29,1.53,3,0,5.62-.76,7.88-2.29,2.25-1.53,3.74-3.4,4.46-5.62l.72.18c-.24,1.32-.78,2.8-1.62,4.46Zm-10.3-30.33c-1.53-1.59-3.59-2.39-6.17-2.39-1.68,0-3.2.5-4.54,1.49s-2.52,2.15-3.51,3.46c-.99,1.32-1.75,2.66-2.29,4-.54,1.35-.87,2.39-.99,3.11h3.69c1.08,0,2.14-.01,3.19-.04,1.05-.03,2.14-.06,3.29-.09,1.14-.03,2.4-.04,3.78-.04.9,0,1.74-.03,2.52-.09.78-.06,1.47-.21,2.07-.45.42-.48.73-.93.95-1.35.21-.42.31-1.05.31-1.89,0-2.22-.76-4.12-2.29-5.71Z"/><path class="cls-1" d="m792.58,562.92c-.87.12-1.75.35-2.66.68-.9.33-1.74.83-2.52,1.48-.78.66-1.41,1.53-1.89,2.61-.72,1.68-1.54,3.66-2.47,5.94-.93,2.28-1.91,4.68-2.92,7.2-1.02,2.52-2.03,5.04-3.02,7.56-.99,2.52-1.91,4.83-2.74,6.93-.48,1.08-.89,2-1.22,2.75-.33.75-.65,1.46-.94,2.12-.3.66-.58,1.29-.86,1.89-.27.6-.58,1.29-.94,2.07-.18.36-.48.54-.9.54-.24,0-.42-.08-.54-.23-.12-.15-.21-.28-.27-.4-.96-2.46-1.86-4.78-2.7-6.98-.84-2.19-1.71-4.44-2.61-6.75-.9-2.31-1.86-4.78-2.88-7.42-1.02-2.64-2.16-5.61-3.42-8.91-.18-.48-.44-1.12-.77-1.93-.33-.81-.67-1.67-1.03-2.57-.36-.9-.72-1.77-1.08-2.61-.36-.84-.69-1.53-.99-2.07-.36-.36-.92-.77-1.67-1.21-.75-.45-2.12-.73-4.09-.86v-.99h21.69v.99c-.54.06-1.21.13-2.02.22-.81.09-1.58.23-2.29.41-.72.18-1.34.44-1.85.77-.51.33-.76.83-.76,1.48,0,.3.19,1.02.58,2.16.39,1.14.9,2.55,1.53,4.23s1.33,3.54,2.11,5.58c.78,2.04,1.58,4.08,2.39,6.12.81,2.04,1.6,4.02,2.38,5.94.78,1.92,1.44,3.6,1.98,5.04.9-2.22,1.95-4.86,3.15-7.92,1.2-3.06,2.34-6.06,3.42-9,1.08-2.94,1.99-5.52,2.75-7.74.75-2.22,1.12-3.6,1.12-4.14,0-.84-.22-1.49-.67-1.94s-1.01-.76-1.67-.94c-.66-.18-1.35-.27-2.07-.27s-1.35-.03-1.89-.09v-.9h17.46v.99c-.6,0-1.34.06-2.21.18Z"/><path class="cls-1" d="m827.64,595.1c-.84,1.65-1.98,3.17-3.42,4.54-1.44,1.38-3.17,2.52-5.17,3.42-2.01.9-4.25,1.35-6.71,1.35-3.06,0-5.85-.57-8.37-1.71-2.52-1.14-4.67-2.75-6.43-4.81-1.77-2.07-3.14-4.5-4.09-7.29-.96-2.79-1.44-5.75-1.44-8.87,0-2.52.45-5.02,1.35-7.52.9-2.49,2.17-4.72,3.83-6.7,1.65-1.98,3.66-3.58,6.03-4.82,2.37-1.23,5-1.84,7.88-1.84,2.34,0,4.54.3,6.62.9,2.07.6,3.87,1.52,5.4,2.75,1.53,1.23,2.77,2.78,3.74,4.63.96,1.86,1.53,4.05,1.71,6.57h-28.89c0,.48-.03,1.04-.09,1.67s-.09,1.28-.09,1.94c0,2.52.36,4.94,1.08,7.24.72,2.31,1.77,4.35,3.15,6.12,1.38,1.77,3.12,3.17,5.22,4.19,2.1,1.02,4.53,1.53,7.29,1.53,3,0,5.62-.76,7.88-2.29,2.25-1.53,3.74-3.4,4.46-5.62l.72.18c-.24,1.32-.78,2.8-1.62,4.46Zm-10.3-30.33c-1.53-1.59-3.59-2.39-6.17-2.39-1.68,0-3.2.5-4.54,1.49s-2.52,2.15-3.51,3.46c-.99,1.32-1.75,2.66-2.29,4-.54,1.35-.87,2.39-.99,3.11h3.69c1.08,0,2.14-.01,3.19-.04,1.05-.03,2.14-.06,3.29-.09,1.14-.03,2.4-.04,3.78-.04.9,0,1.74-.03,2.52-.09.78-.06,1.47-.21,2.07-.45.42-.48.73-.93.95-1.35.21-.42.31-1.05.31-1.89,0-2.22-.76-4.12-2.29-5.71Z"/><path class="cls-1" d="m830.07,604.33v-.99c2.76-.18,4.59-.46,5.49-.85.9-.39,1.35-1.06,1.35-2.03v-51.75c0-.48-.04-.84-.13-1.08-.09-.24-.35-.51-.76-.81-.54-.3-1.35-.77-2.43-1.4s-1.98-1.09-2.7-1.39v-.54l12.87-4.23h.63v61.65c0,.6.13,1.05.4,1.35.27.3.67.51,1.21.63.54.12,1.23.2,2.07.23.84.03,1.83.11,2.97.22v.99h-20.97Z"/><path class="cls-1" d="m894.15,590.96c-1.14,2.73-2.67,5.12-4.59,7.16-1.92,2.04-4.16,3.63-6.71,4.77-2.55,1.14-5.24,1.71-8.06,1.71-2.34,0-4.77-.42-7.29-1.26-2.52-.84-4.85-2.17-6.97-4-2.13-1.83-3.87-4.17-5.22-7.02-1.35-2.85-2.03-6.2-2.03-10.04,0-2.76.52-5.43,1.58-8.01,1.05-2.58,2.52-4.86,4.41-6.84,1.89-1.98,4.17-3.57,6.84-4.77,2.67-1.2,5.62-1.8,8.87-1.8,2.4,0,4.83.45,7.29,1.35,2.46.9,4.69,2.24,6.7,4,2.01,1.77,3.66,3.99,4.95,6.66,1.29,2.67,1.94,5.8,1.94,9.41,0,3.06-.57,5.96-1.71,8.68Zm-7.33-15.34c-.45-2.34-1.19-4.5-2.21-6.48-1.02-1.98-2.37-3.61-4.05-4.9-1.68-1.29-3.75-1.94-6.21-1.94-1.98,0-3.75.6-5.31,1.8-1.56,1.2-2.9,2.78-4,4.73-1.11,1.95-1.95,4.14-2.52,6.57-.57,2.43-.85,4.9-.85,7.42,0,2.76.24,5.37.72,7.83.48,2.46,1.26,4.63,2.34,6.52,1.08,1.89,2.46,3.39,4.14,4.5,1.68,1.11,3.69,1.67,6.03,1.67s4.3-.7,5.9-2.12c1.59-1.41,2.88-3.18,3.87-5.31.99-2.13,1.71-4.42,2.16-6.88.45-2.46.67-4.74.67-6.84s-.23-4.23-.67-6.57Z"/><path class="cls-1" d="m942.08,589.83c-1.17,2.88-2.83,5.36-4.98,7.42-2.15,2.07-4.79,3.69-7.9,4.86s-6.61,1.75-10.5,1.75c-1.08,0-2.14-.03-3.19-.09-1.05-.06-2.14-.21-3.28-.45,0,.84.01,2.07.04,3.69.03,1.62.06,3.33.09,5.13s.04,3.57.04,5.31v4.23c.12.54.45.95.99,1.21.54.27,1.18.48,1.94.63.75.15,1.53.25,2.34.32.81.06,1.51.12,2.12.18v.99h-22.23v-.99c.6-.06,1.32-.17,2.16-.32.84-.15,1.63-.35,2.38-.58.75-.24,1.38-.54,1.89-.9.51-.36.77-.78.77-1.26v-49.86c0-.48-.04-.84-.13-1.08-.09-.24-.35-.51-.77-.81-.54-.3-1.41-.73-2.61-1.31-1.2-.57-2.16-1-2.88-1.3v-.54l13.32-5.22h.54v10.08l.09.18c.84-1.14,1.76-2.31,2.78-3.51,1.02-1.2,2.15-2.29,3.41-3.29,1.25-.99,2.62-1.81,4.08-2.48,1.47-.66,3.07-.99,4.8-.99,2.81,0,5.25.57,7.31,1.71,2.06,1.14,3.77,2.64,5.12,4.5,1.35,1.86,2.35,3.96,3.01,6.3s.99,4.71.99,7.11c0,3.36-.58,6.48-1.75,9.36Zm-7.16-13.14c-.54-1.98-1.36-3.7-2.47-5.17-1.11-1.47-2.51-2.64-4.21-3.51-1.7-.87-3.69-1.3-5.96-1.3-1.56,0-2.94.29-4.17.86-1.23.57-2.27,1.23-3.14,1.98-.87.75-1.52,1.52-1.97,2.29-.45.78-.67,1.35-.67,1.71,0,1.2-.02,2.48-.04,3.83-.03,1.35-.04,2.54-.04,3.55v5.76c0,1.38.03,2.76.09,4.14.12,1.26.33,2.57.63,3.92.3,1.35.81,2.58,1.52,3.69.72,1.11,1.7,2.01,2.96,2.7,1.25.69,2.87,1.04,4.84,1.04,1.73,0,3.41-.48,5.02-1.44,1.61-.96,3.05-2.28,4.3-3.96,1.25-1.68,2.26-3.69,3-6.03.75-2.34,1.12-4.89,1.12-7.65,0-2.28-.27-4.41-.81-6.39Z"/><path class="cls-1" d="m998.28,604.33v-.99c1.62-.12,2.85-.31,3.69-.58.84-.27,1.26-.88,1.26-1.84v-22.95c0-3.48-.62-6.25-1.85-8.33-1.24-2.07-3.42-3.1-6.56-3.1-1.99,0-3.65.53-4.98,1.58-1.33,1.05-2.71,2.38-4.16,4v29.07c0,.42.15.78.45,1.08.3.3.69.53,1.17.68.48.15,1,.27,1.58.36.57.09,1.12.17,1.67.23v.81h-17.64v-.99c1.62-.12,2.91-.31,3.87-.58.96-.27,1.44-.88,1.44-1.84v-23.04c0-3.54-.62-6.31-1.84-8.33-1.23-2.01-3.41-3.01-6.53-3.01-1.98,0-3.6.42-4.86,1.26-1.26.84-2.67,2.1-4.23,3.78v29.52c.12.6.33,1.04.63,1.31.3.27.67.46,1.12.58s.95.2,1.49.22c.54.03,1.11.11,1.71.22v.9h-17.46v-.9c1.38-.12,2.56-.39,3.55-.81.99-.42,1.49-1.11,1.49-2.07v-30.78c0-.48-.04-.84-.14-1.08-.09-.24-.35-.51-.76-.81-.54-.3-1.17-.64-1.89-1.04-.72-.39-1.44-.73-2.16-1.03v-.72l11.79-4.23h.54v9.72l.18.09c.6-1.08,1.37-2.21,2.33-3.38s2.06-2.22,3.32-3.15c1.25-.93,2.61-1.71,4.08-2.34,1.46-.63,3-.94,4.62-.94,2.87,0,5.19.94,6.95,2.83,1.76,1.89,2.86,4.42,3.27,7.6h.27c.54-1.08,1.29-2.23,2.25-3.46.96-1.23,2.07-2.37,3.33-3.42,1.26-1.05,2.66-1.9,4.19-2.57,1.53-.66,3.1-.99,4.72-.99,3.48,0,6.1,1.26,7.88,3.78,1.77,2.52,2.66,5.76,2.66,9.72v26.82c0,.42.18.78.54,1.08.36.3.79.53,1.3.68.51.15,1.06.27,1.67.36.6.09,1.17.17,1.71.23v.81h-17.64Z"/><path class="cls-1" d="m1054.43,595.1c-.84,1.65-1.98,3.17-3.42,4.54-1.44,1.38-3.17,2.52-5.17,3.42-2.01.9-4.25,1.35-6.71,1.35-3.06,0-5.85-.57-8.37-1.71-2.52-1.14-4.67-2.75-6.43-4.81-1.77-2.07-3.14-4.5-4.09-7.29-.96-2.79-1.44-5.75-1.44-8.87,0-2.52.45-5.02,1.35-7.52.9-2.49,2.17-4.72,3.83-6.7,1.65-1.98,3.66-3.58,6.03-4.82,2.37-1.23,5-1.84,7.88-1.84,2.34,0,4.54.3,6.62.9,2.07.6,3.87,1.52,5.4,2.75,1.53,1.23,2.77,2.78,3.74,4.63.96,1.86,1.53,4.05,1.71,6.57h-28.89c0,.48-.03,1.04-.09,1.67s-.09,1.28-.09,1.94c0,2.52.36,4.94,1.08,7.24.72,2.31,1.77,4.35,3.15,6.12,1.38,1.77,3.12,3.17,5.22,4.19,2.1,1.02,4.53,1.53,7.29,1.53,3,0,5.62-.76,7.88-2.29,2.25-1.53,3.74-3.4,4.46-5.62l.72.18c-.24,1.32-.78,2.8-1.62,4.46Zm-10.3-30.33c-1.53-1.59-3.59-2.39-6.17-2.39-1.68,0-3.2.5-4.54,1.49s-2.52,2.15-3.51,3.46c-.99,1.32-1.75,2.66-2.29,4-.54,1.35-.87,2.39-.99,3.11h3.69c1.08,0,2.14-.01,3.19-.04,1.05-.03,2.14-.06,3.29-.09,1.14-.03,2.4-.04,3.78-.04.9,0,1.74-.03,2.52-.09.78-.06,1.47-.21,2.07-.45.42-.48.73-.93.95-1.35.21-.42.31-1.05.31-1.89,0-2.22-.76-4.12-2.29-5.71Z"/><path class="cls-1" d="m1083.96,604.33v-.99c1.62-.12,2.91-.31,3.87-.58.96-.27,1.44-.88,1.44-1.84v-22.68c0-3.48-.66-6.29-1.98-8.42-1.32-2.13-3.54-3.2-6.66-3.2-1.98,0-3.63.42-4.95,1.26-1.32.84-2.79,2.07-4.41,3.69v29.52c.12.6.33,1.04.63,1.31.3.27.66.46,1.08.58.42.12.9.2,1.44.22.54.03,1.11.11,1.71.22v.9h-17.37v-.9c1.38-.12,2.57-.39,3.56-.81.99-.42,1.48-1.11,1.48-2.07v-30.96c0-.48-.04-.84-.13-1.08-.09-.24-.35-.51-.76-.81-.54-.3-1.17-.64-1.89-1.04-.72-.39-1.44-.73-2.16-1.04v-.54l11.79-4.23h.54v9.72l.18.09c.66-1.02,1.48-2.12,2.47-3.29.99-1.17,2.11-2.23,3.36-3.19,1.26-.96,2.63-1.75,4.13-2.39,1.49-.63,3.05-.94,4.66-.94,3.47,0,6.13,1.29,7.98,3.87,1.85,2.58,2.78,5.91,2.78,9.99v26.46c0,.42.19.78.58,1.08.39.3.86.53,1.4.68.54.15,1.12.27,1.75.36s1.21.17,1.75.23v.81h-18.27Z"/><path class="cls-1" d="m1131.83,567.25h-13.68v23.67c0,3.06.66,5.28,1.98,6.66,1.32,1.38,3.03,2.07,5.13,2.07,1.74,0,3.18-.28,4.32-.86,1.14-.57,2.13-1.45,2.97-2.66l.54.27c-.36.9-.85,1.84-1.48,2.83s-1.47,1.89-2.52,2.7c-1.05.81-2.28,1.44-3.69,1.89-1.41.45-3.08.67-5,.67-1.26,0-2.47-.19-3.63-.58-1.16-.39-2.18-.96-3.07-1.71-.89-.75-1.62-1.59-2.18-2.52-.56-.93-.85-1.88-.85-2.83,0-5.64.03-10.99.09-16.07.06-5.07.09-9.58.09-13.54h-6.57v-.99l12.97-12.33h.71v7.83h16.65l-2.79,5.49Z"/></svg>